<?xml version="1.0" standalone="no"?>
<!DOCTYPE svg PUBLIC "-//W3C//DTD SVG 20010904//EN"
 "http://www.w3.org/TR/2001/REC-SVG-20010904/DTD/svg10.dtd">
<svg version="1.0" xmlns="http://www.w3.org/2000/svg"
 width="553.000000pt" height="553.000000pt" viewBox="0 0 553.000000 553.000000"
 preserveAspectRatio="xMidYMid meet">
<metadata>
Created by potrace 1.14, written by Peter Selinger 2001-2017
</metadata>
<g transform="translate(0.000000,553.000000) scale(0.100000,-0.100000)"
fill="#000000" stroke="none">
<path d="M2579 5526 c-2 -2 -42 -7 -89 -10 -47 -4 -92 -9 -100 -11 -8 -2 -36
-6 -62 -10 -113 -14 -322 -66 -473 -118 -333 -115 -650 -301 -924 -542 -251
-219 -491 -535 -641 -840 -101 -206 -196 -468 -216 -595 -3 -19 -7 -37 -9 -40
-3 -5 -11 -48 -40 -217 -13 -77 -20 -203 -20 -373 0 -175 10 -363 19 -379 2
-3 7 -28 10 -54 40 -298 182 -700 334 -951 23 -37 42 -70 42 -72 0 -2 27 -43
60 -91 325 -475 767 -828 1295 -1036 83 -32 240 -83 282 -92 10 -1 45 -10 78
-18 51 -14 153 -34 258 -51 80 -14 223 -21 402 -20 213 1 298 7 420 30 10 2
37 6 60 10 51 7 343 81 370 93 11 5 49 19 85 32 89 31 263 109 357 160 111 59
344 216 438 294 139 115 332 312 427 435 64 84 98 131 98 135 0 3 15 26 34 52
57 81 157 262 214 388 54 121 132 340 152 431 7 27 14 58 17 69 14 50 53 288
60 365 14 153 7 531 -11 625 -2 11 -7 43 -10 70 -20 157 -133 561 -167 600 -5
5 -9 15 -9 22 0 20 -95 213 -162 331 -231 402 -573 749 -983 996 -222 133
-601 284 -812 322 -32 6 -60 11 -118 23 -27 5 -77 13 -110 16 -33 4 -69 9 -80
12 -24 5 -471 14 -476 9z"/>
</g>
</svg>
